<?xml version="1.0" encoding="utf-8"?>
<!-- Generator: Adobe Illustrator 22.1.0, SVG Export Plug-In . SVG Version: 6.00 Build 0)  -->
<svg version="1.1" id="Layer_1" xmlns="http://www.w3.org/2000/svg" xmlns:xlink="http://www.w3.org/1999/xlink" x="0px" y="0px"
	 viewBox="0 0 270 128" style="enable-background:new 0 0 270 128;" xml:space="preserve">
<style type="text/css">
	.st0{fill:#01AEF0;}
	.st1{fill:#FFFFFF;}
</style>
<rect x="0.3" y="0.1" class="st0" width="270" height="127.8"/>
<g>
	<g>
		<path class="st1" d="M20.5,57.4c-0.2,0-0.3-0.1-0.3-0.3v-2.4c0-0.2,0.1-0.3,0.3-0.3h2.3c0.2,0,0.3,0.1,0.3,0.3v2.4
			c0,0.2-0.1,0.3-0.3,0.3H20.5z M19.6,68.9c0.9,0,1.5-0.3,2-0.8c0.4-0.5,0.6-1.2,0.6-2.2v-2.3h-2.5c-0.8,0-1.4,0.2-1.9,0.6
			c-0.5,0.4-0.7,1.1-0.7,2.2c0,0.8,0.2,1.5,0.7,1.9C18.2,68.7,18.8,68.9,19.6,68.9 M16.9,57.4c-0.2,0-0.3-0.1-0.3-0.3v-2.4
			c0-0.2,0.1-0.3,0.3-0.3h2.3c0.2,0,0.3,0.1,0.3,0.3v2.4c0,0.2-0.1,0.3-0.3,0.3H16.9z M22.2,60.8v-1.2c0-0.2,0.1-0.3,0.3-0.3H25
			c0.2,0,0.3,0.1,0.3,0.3v8.9c0,0.6,0.1,0.9,0.3,1.1c0.2,0.2,0.5,0.3,1,0.3h1c0.7,0,1.1,0.5,1.1,1.4c0,0.6-0.1,0.9-0.3,1.1
			c-0.2,0.2-0.5,0.3-0.8,0.3h-2.2c-0.9,0-1.6-0.2-2.1-0.5c-0.5-0.3-0.8-0.9-1-1.7c-0.4,0.3-0.8,0.6-1.4,0.8
			c-0.5,0.2-1.1,0.3-1.7,0.3c-0.7,0-1.4-0.1-2-0.3c-0.6-0.2-1.2-0.5-1.7-0.9c-0.5-0.4-0.8-1-1.1-1.6c-0.3-0.7-0.4-1.4-0.4-2.4
			c0-1.1,0.2-2,0.5-2.7c0.3-0.7,0.7-1.3,1.2-1.7c0.5-0.4,1.1-0.7,1.7-0.9c0.6-0.2,1.3-0.3,2-0.3H22.2z"/>
		<path class="st1" d="M33.2,78C33.1,78,33,78,33,77.8v-2.4c0-0.2,0.1-0.3,0.3-0.3h2.3c0.2,0,0.3,0.1,0.3,0.3v2.4
			c0,0.2-0.1,0.3-0.3,0.3H33.2z M29.6,78c-0.2,0-0.3-0.1-0.3-0.3v-2.4c0-0.2,0.1-0.3,0.3-0.3H32c0.2,0,0.3,0.1,0.3,0.3v2.4
			c0,0.2-0.1,0.3-0.3,0.3H29.6z M33.9,71.3c-0.3,0.5-0.6,0.9-1.2,1.1c-0.5,0.2-1.2,0.3-2.1,0.3h-2.6c-0.4,0-0.6-0.1-0.8-0.3
			c-0.2-0.2-0.3-0.5-0.3-1c0-0.5,0.1-0.9,0.3-1.1c0.2-0.2,0.5-0.3,0.8-0.3h1.8c0.3,0,0.6-0.1,0.8-0.2s0.3-0.3,0.4-0.5
			c0.1-0.2,0.1-0.5,0.2-0.8c0-0.3,0-0.8,0-1.3v-5.7c0-0.1,0.1-0.2,0.1-0.2c0.1,0,0.2-0.1,0.3-0.1H34c0.2,0,0.3,0.1,0.3,0.3v6.7
			c0,0.6,0.2,1,0.6,1.3c0.4,0.3,1,0.4,1.7,0.4h0.5c0.4,0,0.6,0.1,0.8,0.3c0.2,0.2,0.3,0.5,0.3,1c0,0.5-0.1,0.9-0.3,1.1
			c-0.2,0.2-0.5,0.3-0.8,0.3c-0.7,0-1.3-0.1-1.9-0.3C34.7,72.3,34.2,71.9,33.9,71.3"/>
		<path class="st1" d="M45.6,63.6c-0.9,0-1.5,0.3-1.9,0.9C43.2,65,43,65.8,43,66.9c0,1.2,0.2,2,0.6,2.5c0.4,0.5,1.1,0.8,1.9,0.8
			c0.9,0,1.6-0.3,2-0.8c0.4-0.5,0.6-1.4,0.6-2.5C48.2,64.7,47.3,63.6,45.6,63.6 M45.6,72.9c-0.9,0-1.8-0.1-2.5-0.4
			c-0.7-0.3-1.4-0.7-1.9-1.2c-0.2,0.3-0.4,0.5-0.7,0.7c-0.3,0.2-0.5,0.3-0.8,0.4c-0.3,0.1-0.6,0.2-0.9,0.2c-0.3,0-0.6,0.1-0.8,0.1
			h-1c-0.4,0-0.6-0.1-0.8-0.3c-0.2-0.2-0.3-0.6-0.3-1.1c0-0.5,0.1-0.9,0.3-1.1c0.2-0.2,0.5-0.3,0.8-0.3h1.1c0.2,0,0.4,0,0.6-0.1
			c0.2-0.1,0.4-0.2,0.6-0.4c0.2-0.2,0.3-0.4,0.4-0.8c0.1-0.3,0.2-0.7,0.2-1.2c0-0.1,0-0.3,0-0.4v-0.4c0-1.1,0.2-2,0.5-2.7
			c0.3-0.7,0.7-1.3,1.2-1.8c0.5-0.5,1.1-0.8,1.8-1c0.7-0.2,1.4-0.3,2.2-0.3c0.8,0,1.6,0.1,2.3,0.3c0.7,0.2,1.3,0.6,1.8,1
			c0.5,0.5,0.9,1.1,1.2,1.9c0.3,0.8,0.4,1.7,0.4,2.9c0,1.1-0.1,2-0.4,2.8c-0.3,0.8-0.7,1.4-1.2,1.8c-0.5,0.5-1.1,0.8-1.8,1
			C47.2,72.8,46.4,72.9,45.6,72.9"/>
		<path class="st1" d="M66.1,54.3c0-0.2,0.1-0.3,0.3-0.3H69c0.2,0,0.3,0.1,0.3,0.3v14.3c0.2,1,0.9,1.4,2.3,1.4H72
			c0.4,0,0.6,0.1,0.8,0.3c0.2,0.2,0.3,0.5,0.3,1c0,0.5-0.1,0.9-0.3,1.1c-0.2,0.2-0.5,0.3-0.8,0.3c-0.7,0-1.3-0.1-1.8-0.3
			c-0.5-0.2-1-0.5-1.3-1.1c-0.3,0.5-0.6,0.9-1.1,1.1c-0.5,0.2-1.2,0.3-2,0.3H53.9c-0.2,0-0.3-0.1-0.3-0.3v-2.2
			c0-0.2,0.1-0.3,0.3-0.3h4.9V58.1c0-0.2,0.1-0.3,0.3-0.3h2.5c0.2,0,0.3,0.1,0.3,0.3V70h2.9c0.3,0,0.6,0,0.7-0.1
			c0.2-0.1,0.3-0.2,0.4-0.4c0.1-0.2,0.1-0.4,0.2-0.8c0-0.3,0-0.7,0-1.2V54.3z"/>
		<path class="st1" d="M78.6,68.3c0,1.1,0.7,1.7,2,1.7c0.4,0,0.7,0,1-0.1c0.2,0,0.4-0.1,0.6-0.3c0.1-0.1,0.2-0.3,0.3-0.6
			c0-0.3,0.1-0.7,0.1-1.1v-4.2c0-0.2,0.1-0.3,0.3-0.3h2.5c0.2,0,0.3,0.1,0.3,0.3v4.5c0,0.6,0.2,1,0.5,1.3c0.4,0.3,0.8,0.4,1.4,0.4
			c0.4,0,0.8,0,1.1-0.1c0.3-0.1,0.4-0.2,0.6-0.4c0.1-0.2,0.2-0.5,0.2-0.8c0-0.3,0.1-0.8,0.1-1.4v-5.7c0-0.2,0.1-0.3,0.3-0.3h2.5
			c0.2,0,0.3,0.1,0.3,0.3v7.7c0,1.3-0.3,2.2-0.8,2.7c-0.5,0.5-1.4,0.8-2.7,0.8h-1.2c-0.6,0-1.2-0.1-1.6-0.4c-0.5-0.3-0.8-0.6-1-1.1
			c-0.3,0.5-0.6,0.9-1.1,1.1c-0.5,0.2-1.1,0.3-2,0.3h-1.2c-1.3,0-2.2-0.5-2.7-1.5c-0.3,0.5-0.6,0.9-1.1,1.1c-0.5,0.2-1.1,0.3-2,0.3
			H72c-0.4,0-0.6-0.1-0.8-0.3c-0.2-0.2-0.3-0.5-0.3-1c0-0.6,0.1-0.9,0.3-1.2c0.2-0.2,0.5-0.3,0.8-0.3h2.2c0.6,0,0.9-0.2,1.1-0.5
			c0.1-0.3,0.2-0.9,0.2-1.6v-4.2c0-0.2,0.1-0.3,0.3-0.3h2.5c0.2,0,0.3,0.1,0.3,0.3V68.3z"/>
		<path class="st1" d="M100,79c-0.1-0.2-0.2-0.4-0.3-0.7c-0.1-0.3-0.1-0.6-0.1-0.9c0-0.3,0.1-0.6,0.2-1c0.1-0.3,0.3-0.6,0.5-0.9
			c0.2-0.3,0.5-0.5,0.9-0.6c0.4-0.2,0.8-0.2,1.4-0.2c0.5,0,1,0.1,1.4,0.3c0.4,0.2,0.7,0.4,1,0.7c0.1,0.1,0.1,0.2,0,0.3l-0.7,0.7
			c-0.1,0.1-0.1,0.1-0.2,0.1c0,0-0.1,0-0.1-0.1c-0.4-0.4-0.8-0.6-1.3-0.6c-0.4,0-0.8,0.1-1,0.4c-0.2,0.3-0.4,0.6-0.4,1
			c0,0.4,0.1,0.7,0.3,1c0.2,0.3,0.4,0.5,0.6,0.6h2.8c0.1,0,0.2,0.1,0.2,0.2v1c0,0.1-0.1,0.2-0.2,0.2H99c-0.1,0-0.2-0.1-0.2-0.2v-1
			c0-0.1,0.1-0.2,0.2-0.2H100z M103.5,70h2.9c0.5,0,0.8-0.1,1-0.3c0.2-0.2,0.3-0.6,0.3-1.1V54.3c0-0.2,0.1-0.3,0.3-0.3h2.5
			c0.2,0,0.3,0.1,0.3,0.3v15c0,1.2-0.2,2.1-0.7,2.6c-0.5,0.6-1.3,0.8-2.5,0.8H95.5c-0.2,0-0.3-0.1-0.3-0.3v-2.2
			c0-0.2,0.1-0.3,0.3-0.3h4.9V58.1c0-0.2,0.1-0.3,0.3-0.3h2.5c0.2,0,0.3,0.1,0.3,0.3V70z"/>
		<path class="st1" d="M117.5,72.5c0,0.2-0.1,0.3-0.3,0.3h-2.5c-0.2,0-0.3-0.1-0.3-0.3V54.3c0-0.2,0.1-0.3,0.3-0.3h2.5
			c0.2,0,0.3,0.1,0.3,0.3V72.5z"/>
		<path class="st1" d="M133.4,57.4c-0.2,0-0.3-0.1-0.3-0.3v-2.4c0-0.2,0.1-0.3,0.3-0.3h2.3c0.2,0,0.3,0.1,0.3,0.3v2.4
			c0,0.2-0.1,0.3-0.3,0.3H133.4z M132.5,68.9c0.9,0,1.5-0.3,2-0.8c0.4-0.5,0.6-1.2,0.6-2.2v-2.3h-2.5c-0.8,0-1.4,0.2-1.9,0.6
			c-0.5,0.4-0.7,1.1-0.7,2.2c0,0.8,0.2,1.5,0.7,1.9C131.1,68.7,131.8,68.9,132.5,68.9 M129.9,57.4c-0.2,0-0.3-0.1-0.3-0.3v-2.4
			c0-0.2,0.1-0.3,0.3-0.3h2.3c0.2,0,0.3,0.1,0.3,0.3v2.4c0,0.2-0.1,0.3-0.3,0.3H129.9z M135.1,60.8v-1.2c0-0.2,0.1-0.3,0.3-0.3h2.5
			c0.2,0,0.3,0.1,0.3,0.3v8.9c0,0.6,0.1,0.9,0.3,1.1c0.2,0.2,0.5,0.3,1,0.3h1c0.7,0,1.1,0.5,1.1,1.4c0,0.6-0.1,0.9-0.3,1.1
			c-0.2,0.2-0.5,0.3-0.8,0.3h-2.2c-0.9,0-1.6-0.2-2.1-0.5c-0.5-0.3-0.8-0.9-1-1.7c-0.4,0.3-0.8,0.6-1.4,0.8
			c-0.5,0.2-1.1,0.3-1.7,0.3c-0.7,0-1.4-0.1-2-0.3c-0.6-0.2-1.2-0.5-1.7-0.9c-0.5-0.4-0.8-1-1.1-1.6c-0.3-0.7-0.4-1.4-0.4-2.4
			c0-1.1,0.2-2,0.5-2.7c0.3-0.7,0.7-1.3,1.2-1.7c0.5-0.4,1.1-0.7,1.7-0.9c0.6-0.2,1.3-0.3,2-0.3H135.1z"/>
		<path class="st1" d="M146.2,58.5c-0.2,0-0.3-0.1-0.3-0.3v-2.4c0-0.2,0.1-0.3,0.3-0.3h2.3c0.2,0,0.3,0.1,0.3,0.3v2.4
			c0,0.2-0.1,0.3-0.3,0.3H146.2z M144.4,55c-0.2,0-0.3-0.1-0.3-0.3v-2.4c0-0.2,0.1-0.3,0.3-0.3h2.3c0.2,0,0.3,0.1,0.3,0.3v2.4
			c0,0.2-0.1,0.3-0.3,0.3H144.4z M142.6,58.5c-0.2,0-0.3-0.1-0.3-0.3v-2.4c0-0.2,0.1-0.3,0.3-0.3h2.3c0.2,0,0.3,0.1,0.3,0.3v2.4
			c0,0.2-0.1,0.3-0.3,0.3H142.6z M140.9,72.7c-0.4,0-0.6-0.1-0.8-0.3c-0.2-0.2-0.3-0.5-0.3-1c0-0.5,0.1-0.9,0.3-1.1
			c0.2-0.2,0.5-0.3,0.8-0.3h1.8c0.5,0,0.8-0.1,1-0.3c0.2-0.2,0.3-0.6,0.3-1.1v-7c0-0.2,0.1-0.3,0.3-0.3h2.5c0.2,0,0.3,0.1,0.3,0.3
			v7.7c0,1.2-0.2,2.1-0.7,2.6c-0.5,0.6-1.3,0.8-2.5,0.8H140.9z"/>
		<path class="st1" d="M150.9,54.3c0-0.2,0.1-0.3,0.3-0.3h2.5c0.2,0,0.3,0.1,0.3,0.3v14.3c0,0.6,0.1,0.9,0.3,1.1
			c0.2,0.2,0.5,0.3,1,0.3h1c0.4,0,0.6,0.1,0.8,0.3c0.2,0.2,0.3,0.6,0.3,1.1c0,0.6-0.1,0.9-0.3,1.1c-0.2,0.2-0.5,0.2-0.8,0.2h-2.2
			c-1.2,0-2-0.3-2.5-0.8c-0.5-0.6-0.7-1.4-0.7-2.6V54.3z"/>
		<path class="st1" d="M162.3,58.5c-0.2,0-0.3-0.1-0.3-0.3v-2.4c0-0.2,0.1-0.3,0.3-0.3h2.7c0.2,0,0.3,0.1,0.3,0.3v2.4
			c0,0.2-0.1,0.3-0.3,0.3H162.3z M159,70c-0.4-0.4-0.7-0.9-0.9-1.5c-0.2-0.6-0.4-1.3-0.4-2.1c0-0.6,0.1-1.3,0.3-2
			c0.2-0.7,0.5-1.3,1-1.8c0.5-0.5,1.1-1,1.8-1.3c0.8-0.3,1.7-0.5,2.8-0.5c1.2,0,2.2,0.2,3.1,0.6c0.8,0.4,1.5,0.9,2,1.6
			c0.1,0.1,0.1,0.3-0.1,0.4l-1.5,1.5c-0.1,0.1-0.3,0.1-0.4,0c-0.8-0.9-1.8-1.3-2.9-1.3c-0.9,0-1.7,0.3-2.2,0.8
			c-0.5,0.5-0.8,1.3-0.8,2.2c0,0.5,0.1,1,0.3,1.4c0.2,0.4,0.4,0.7,0.6,1c0.2,0.3,0.5,0.5,0.7,0.6c0.2,0.2,0.4,0.3,0.6,0.3h6
			c0.2,0,0.3,0.1,0.3,0.3v2.2c0,0.2-0.1,0.3-0.3,0.3h-12.8c-0.4,0-0.6-0.1-0.8-0.3c-0.2-0.2-0.3-0.6-0.3-1.1c0-0.5,0.1-0.9,0.3-1.1
			c0.2-0.2,0.5-0.3,0.8-0.3H159z"/>
		<path class="st1" d="M176.4,79c-0.1-0.2-0.2-0.4-0.3-0.7c-0.1-0.3-0.1-0.6-0.1-0.9c0-0.3,0.1-0.6,0.2-1c0.1-0.3,0.3-0.6,0.5-0.9
			c0.2-0.3,0.5-0.5,0.9-0.6c0.4-0.2,0.8-0.2,1.4-0.2c0.5,0,1,0.1,1.4,0.3c0.4,0.2,0.7,0.4,1,0.7c0.1,0.1,0.1,0.2,0,0.3l-0.7,0.7
			c-0.1,0.1-0.1,0.1-0.2,0.1c0,0-0.1,0-0.1-0.1c-0.4-0.4-0.8-0.6-1.3-0.6c-0.4,0-0.8,0.1-1,0.4c-0.2,0.3-0.4,0.6-0.4,1
			c0,0.4,0.1,0.7,0.3,1c0.2,0.3,0.4,0.5,0.6,0.6h2.8c0.1,0,0.2,0.1,0.2,0.2v1c0,0.1-0.1,0.2-0.2,0.2h-5.9c-0.1,0-0.2-0.1-0.2-0.2v-1
			c0-0.1,0.1-0.2,0.2-0.2H176.4z M179.9,70h2.9c0.5,0,0.8-0.1,1-0.3c0.2-0.2,0.3-0.6,0.3-1.1V54.3c0-0.2,0.1-0.3,0.3-0.3h2.5
			c0.2,0,0.3,0.1,0.3,0.3v15c0,1.2-0.2,2.1-0.7,2.6c-0.5,0.6-1.3,0.8-2.5,0.8h-12.1c-0.2,0-0.3-0.1-0.3-0.3v-2.2
			c0-0.2,0.1-0.3,0.3-0.3h4.9V58.1c0-0.2,0.1-0.3,0.3-0.3h2.5c0.2,0,0.3,0.1,0.3,0.3V70z"/>
		<path class="st1" d="M193.9,72.5c0,0.2-0.1,0.3-0.3,0.3h-2.5c-0.2,0-0.3-0.1-0.3-0.3V54.3c0-0.2,0.1-0.3,0.3-0.3h2.5
			c0.2,0,0.3,0.1,0.3,0.3V72.5z"/>
	</g>
	<g>
		<path class="st1" d="M104.3,91.3c-0.9,0-1.5,0.3-2,0.9c-0.4,0.6-0.6,1.4-0.6,2.5c0,1.2,0.2,2,0.6,2.5c0.4,0.5,1.1,0.8,2,0.8
			c0.9,0,1.5-0.3,2-0.8c0.4-0.5,0.6-1.4,0.6-2.5C106.9,92.4,106,91.3,104.3,91.3 M104.3,100.6c-0.9,0-1.7-0.1-2.4-0.4
			c-0.7-0.3-1.3-0.7-1.8-1.2c-0.1,0.2-0.3,0.4-0.5,0.5c-0.2,0.1-0.4,0.2-0.6,0.4c-0.2,0.1-0.3,0.3-0.5,0.5c-0.1,0.2-0.2,0.5-0.2,1
			v4.6h-3.1v-5.2c0-0.6,0.1-1.1,0.2-1.5c0.2-0.4,0.4-0.7,0.6-1c0.2-0.3,0.5-0.5,0.8-0.6c0.3-0.2,0.6-0.3,0.8-0.5
			c0.2-0.2,0.5-0.4,0.7-0.6c0.2-0.2,0.3-0.5,0.3-0.8c0-0.2,0-0.4,0-0.6c0-0.2,0-0.4,0-0.6c0-1.1,0.1-2.1,0.4-2.9
			c0.3-0.8,0.7-1.4,1.2-1.9c0.5-0.5,1.1-0.8,1.8-1c0.7-0.2,1.5-0.3,2.3-0.3c0.8,0,1.6,0.1,2.3,0.3c0.7,0.2,1.3,0.6,1.8,1
			c0.5,0.5,0.9,1.1,1.2,1.9c0.3,0.8,0.4,1.7,0.4,2.9c0,0.2,0,0.3,0,0.5c0,0.2,0,0.3,0,0.5c0,0.8,0.2,1.3,0.6,1.6
			c0.3,0.3,0.7,0.5,1.1,0.5h0.8c0.4,0,0.6,0.1,0.8,0.3c0.2,0.2,0.3,0.5,0.3,1c0,0.5-0.1,0.9-0.3,1.1c-0.2,0.2-0.5,0.3-0.8,0.3
			c-0.3,0-0.6,0-1,0c-0.3,0-0.7-0.1-1-0.2c-0.3-0.1-0.6-0.2-1-0.4c-0.3-0.2-0.6-0.5-0.8-0.8c-0.5,0.6-1.1,1-1.9,1.3
			C106,100.5,105.2,100.6,104.3,100.6"/>
		<path class="st1" d="M112.4,100.4c-0.4,0-0.6-0.1-0.8-0.3c-0.2-0.2-0.3-0.5-0.3-1.1c0-0.5,0.1-0.9,0.3-1.1
			c0.2-0.2,0.5-0.3,0.8-0.3h1.4c0.5,0,0.8-0.1,1-0.3c0.2-0.2,0.3-0.6,0.3-1.1V81.9c0-0.2,0.1-0.3,0.3-0.3h2.5c0.2,0,0.3,0.1,0.3,0.3
			v15c0,1.2-0.2,2.1-0.7,2.6c-0.5,0.6-1.3,0.8-2.5,0.8H112.4z"/>
		<path class="st1" d="M121.8,81.9c0-0.2,0.1-0.3,0.3-0.3h2.5c0.2,0,0.3,0.1,0.3,0.3v14.3c0,0.6,0.1,0.9,0.3,1.1
			c0.2,0.2,0.5,0.3,1,0.3h1c0.4,0,0.6,0.1,0.8,0.3c0.2,0.2,0.3,0.6,0.3,1.1c0,0.6-0.1,0.9-0.3,1.1c-0.2,0.2-0.5,0.2-0.8,0.2H125
			c-1.2,0-2-0.3-2.5-0.8c-0.5-0.6-0.7-1.4-0.7-2.6V81.9z"/>
		<path class="st1" d="M135.3,96.8c0.3-0.2,0.6-0.4,0.9-0.7c0.3-0.3,0.6-0.5,0.8-0.8c0.2-0.3,0.4-0.6,0.6-1c0.1-0.3,0.2-0.7,0.2-1.1
			c0-0.8-0.3-1.3-0.8-1.6c-0.5-0.3-1.2-0.4-2.1-0.4c-0.7,0-1.4,0.1-1.9,0.2c-0.5,0.1-0.9,0.3-1.1,0.4c0.8,0.5,1.6,1.2,2.2,2.1
			C134.6,94.8,135.1,95.8,135.3,96.8 M134.9,88.5c2.1,0,3.7,0.4,4.6,1.2c1,0.8,1.5,1.8,1.5,3.1c0,0.6-0.1,1.1-0.3,1.6
			c-0.2,0.5-0.4,0.9-0.7,1.3c-0.3,0.4-0.6,0.8-0.9,1.1c-0.4,0.3-0.7,0.6-1,0.8c0.1,0,0.3,0.1,0.5,0.1h0.6h3.4c0.4,0,0.7,0.1,0.9,0.3
			c0.1,0.2,0.2,0.6,0.2,1.1c0,0.5-0.1,0.9-0.3,1c-0.2,0.2-0.4,0.3-0.8,0.3h-4.1c-0.7,0-1.3-0.1-1.9-0.2c-0.6-0.1-1.2-0.3-1.7-0.7
			c-0.6,0.3-1.3,0.6-1.9,0.7c-0.7,0.1-1.3,0.2-1.8,0.2h-4c-0.3,0-0.6-0.1-0.8-0.3c-0.2-0.2-0.3-0.5-0.3-1c0-0.5,0.1-0.8,0.2-1.1
			c0.1-0.2,0.4-0.4,0.9-0.4h3.2c0.3,0,0.6,0,1,0c0.4,0,0.8-0.1,1.3-0.2c-0.1-0.6-0.3-1.1-0.6-1.6c-0.2-0.4-0.5-0.8-0.8-1.2
			c-0.3-0.3-0.6-0.6-1-0.9c-0.4-0.3-0.7-0.5-1.1-0.8c-0.2-0.1-0.3-0.3-0.3-0.4c0-0.1,0-0.3,0-0.4v-1.7c0-0.2,0.2-0.4,0.5-0.7
			c0.3-0.2,0.8-0.5,1.4-0.6c0.6-0.2,1.2-0.4,2-0.5C133.4,88.6,134.1,88.5,134.9,88.5"/>
		<path class="st1" d="M142.6,100.4c-0.4,0-0.6-0.1-0.8-0.3c-0.2-0.2-0.3-0.5-0.3-1.1c0-0.5,0.1-0.9,0.3-1.1
			c0.2-0.2,0.5-0.3,0.8-0.3h1.4c0.5,0,0.8-0.1,1-0.3c0.2-0.2,0.3-0.6,0.3-1.1V81.9c0-0.2,0.1-0.3,0.3-0.3h2.5c0.2,0,0.3,0.1,0.3,0.3
			v15c0,1.2-0.2,2.1-0.7,2.6c-0.5,0.6-1.3,0.8-2.5,0.8H142.6z"/>
		<path class="st1" d="M155.1,100.2c0,0.2-0.1,0.3-0.3,0.3h-2.5c-0.2,0-0.3-0.1-0.3-0.3V81.9c0-0.2,0.1-0.3,0.3-0.3h2.5
			c0.2,0,0.3,0.1,0.3,0.3V100.2z"/>
		<path class="st1" d="M166.5,89.3c0-0.2,0.1-0.3,0.3-0.3h2.5c0.2,0,0.3,0.1,0.3,0.3V96c0,0.6,0.2,1,0.6,1.3c0.4,0.3,1,0.4,1.7,0.4
			h0.5c0.4,0,0.6,0.1,0.8,0.3c0.2,0.2,0.3,0.5,0.3,1c0,0.5-0.1,0.9-0.3,1.1c-0.2,0.2-0.5,0.3-0.8,0.3c-0.6,0-1.2-0.1-1.6-0.2
			c-0.5-0.1-0.8-0.4-1.1-0.8v0.5c0,1-0.1,1.9-0.2,2.6c-0.2,0.7-0.4,1.4-0.8,1.9c-0.4,0.5-0.9,0.9-1.5,1.1c-0.6,0.2-1.4,0.4-2.3,0.4
			h-1c-0.2,0-0.3-0.1-0.3-0.3v-2.2c0-0.2,0.1-0.3,0.3-0.3h0.6c0.5,0,0.9-0.1,1.2-0.3c0.3-0.2,0.5-0.5,0.6-0.8
			c0.1-0.4,0.2-0.8,0.2-1.3c0-0.5,0-1.1,0-1.8V89.3z"/>
		<path class="st1" d="M175.5,105.7c-0.2,0-0.3-0.1-0.3-0.3V103c0-0.2,0.1-0.3,0.3-0.3h2.7c0.2,0,0.3,0.1,0.3,0.3v2.4
			c0,0.2-0.1,0.3-0.3,0.3H175.5z M178.3,96c0,0.6,0.2,1,0.6,1.3c0.4,0.3,1,0.4,1.7,0.4h0.5c0.4,0,0.6,0.1,0.8,0.3
			c0.2,0.2,0.3,0.5,0.3,1c0,0.5-0.1,0.9-0.3,1.1c-0.2,0.2-0.5,0.3-0.8,0.3c-0.7,0-1.3-0.1-1.9-0.3c-0.5-0.2-1-0.6-1.3-1.2
			c-0.3,0.5-0.6,0.9-1.1,1.1c-0.5,0.2-1.2,0.3-2.1,0.3h-2.2c-0.4,0-0.6-0.1-0.8-0.2c-0.2-0.1-0.3-0.4-0.3-0.8c0-0.5,0.1-0.9,0.3-1.2
			c0.2-0.4,0.5-0.5,0.9-0.5h1.3c0.3,0,0.6,0,0.7-0.1c0.2-0.1,0.3-0.2,0.4-0.4c0.1-0.2,0.1-0.5,0.2-0.8c0-0.3,0-0.7,0-1.2v-5.8
			c0-0.2,0.1-0.3,0.3-0.3h2.5c0.2,0,0.3,0.1,0.3,0.3V96z"/>
		<path class="st1" d="M183.6,97.7c-0.4-0.4-0.7-0.9-0.9-1.5c-0.2-0.6-0.4-1.3-0.4-2.1c0-0.6,0.1-1.3,0.3-2c0.2-0.7,0.5-1.3,1-1.8
			c0.5-0.5,1.1-1,1.8-1.3c0.8-0.3,1.7-0.5,2.8-0.5c1.2,0,2.2,0.2,3.1,0.6c0.8,0.4,1.5,0.9,2,1.6c0.1,0.1,0.1,0.3-0.1,0.4l-1.5,1.5
			c-0.1,0.1-0.3,0.1-0.4,0c-0.8-0.9-1.8-1.3-2.9-1.3c-0.9,0-1.7,0.3-2.2,0.8c-0.5,0.6-0.8,1.3-0.8,2.2c0,0.5,0.1,1,0.3,1.4
			c0.2,0.4,0.4,0.7,0.6,1c0.2,0.3,0.5,0.5,0.7,0.6c0.2,0.2,0.4,0.3,0.6,0.3h6c0.2,0,0.3,0.1,0.3,0.3v2.2c0,0.2-0.1,0.3-0.3,0.3H181
			c-0.4,0-0.6-0.1-0.8-0.3c-0.2-0.2-0.3-0.6-0.3-1.1c0-0.5,0.1-0.9,0.3-1.1c0.2-0.2,0.5-0.3,0.8-0.3H183.6z"/>
	</g>
</g>
<path class="st1" d="M208.7,72l-0.1,0.1h42.7l0-0.1c-2.1-5.6-6.2-9-9.8-11.1c-1.8-1-3.5-1.7-4.8-2.2c-0.6-0.2-1.2-0.4-1.6-0.5
	c-0.2-0.1-0.3-0.1-0.5-0.1c-0.1,0-0.1,0-0.1,0c0,0-0.1,0-0.1,0l-0.1,0.2c4.9,2.4,8.2,7.7,8.8,12.3h-0.9c-0.3-0.5-0.6-1.3-0.9-2.3
	c-0.6-1.5-1.3-3.4-2.8-5.2c-1.5-1.8-3.7-3.6-7.1-5l0,0h-1.2v12.5h-1.1V58.2H228l0,0c-4.2,1.4-6.5,4.2-8,6.7
	c-0.7,1.3-1.2,2.5-1.6,3.5c-0.2,0.5-0.3,0.9-0.5,1.2c-0.1,0.3-0.2,0.5-0.3,0.7l-1.2,0c1.3-4.9,3.9-9.6,8.6-12.1L225,58
	c-4.2,1.7-7.5,3.4-10.1,5.6C212.2,65.8,210.2,68.5,208.7,72 M206.2,83.8l0.1,0.8c0.6,6,3.5,11.3,7.7,15.2c4.2,3.8,9.9,6.2,16,6.2
	c6.1,0,11.7-2.4,15.8-6.2c4.2-3.9,7-9.2,7.6-15.1l0.1-0.8h-0.8L206.2,83.8z M244.8,98.7c-2.5,2.3-5.5,4-8.9,5c0.7-0.5,1.4-1.1,2-1.8
	c1.3-1.5,2.5-3.3,3.4-5.5l-1.3-0.6c-1.2,2.7-2.7,4.9-4.5,6.4c-0.9,0.7-1.8,1.3-2.8,1.7c-0.7,0.3-1.4,0.4-2.2,0.5l0-8.4l-1.4,0l0,8.4
	c-0.8-0.1-1.7-0.3-2.5-0.6c-1.5-0.6-2.8-1.6-4.1-2.9c-1.2-1.4-2.3-3.1-3.2-5.1l-1.3,0.6c1.3,2.8,2.9,5.2,4.9,6.9
	c0.2,0.1,0.3,0.3,0.5,0.4c-3.2-1-6.1-2.6-8.6-4.8c-3.8-3.4-6.4-8.1-7.1-13.4l7.5,0c0,0.1,0,0.2,0,0.3c0,0.5,0,1.1,0.2,1.9l1.4-0.3
	c-0.1-0.7-0.2-1.2-0.2-1.6c0-0.1,0-0.2,0-0.3l12.4,0v2.1h1.4v-2.1l12.2,0c0,0.2,0,0.5-0.1,0.7c0,0.3-0.1,0.6-0.3,1l1.3,0.5
	c0.2-0.5,0.3-0.9,0.3-1.3c0-0.3,0.1-0.6,0.1-0.9l7.5,0C251,90.6,248.5,95.3,244.8,98.7 M222.1,82.3v0.3l3.4,0l0-0.1v0
	c0,0,0-0.2,0.1-0.4h3.2c0,0.1,0.1,0.3,0.2,0.5l0,0l3.7,0v-0.3l-3.4-8.8h-3.2l0.1,0.1c0.3,0.7,0.4,0.9,0.5,1.1
	c0.1,0.2,0.1,0.4,0.4,0.9h-2.4L222.1,82.3z M227.2,76.8c0.2,0.7,0.8,2.3,0.9,2.8h-1.7C226.5,79.2,227,77.6,227.2,76.8 M214.9,73.5
	v9.1h7v-2.3H218v-6.8H214.9z M211,80.1c-0.2,0.1-0.5,0.2-0.8,0.2h-2.3l0,2.3h4c0.7,0,1.4-0.3,1.9-0.8c0.5-0.5,0.9-1.1,0.9-1.9
	c0,0,0-0.1,0-0.1c0-0.6-0.3-1.2-0.6-1.8c-0.5-0.8-1.3-1.5-1.9-2.2c-0.3-0.4-0.6-0.7-0.8-1.1c-0.2-0.4-0.3-0.7-0.3-1.1
	c0,0,0-0.1,0-0.1l0-0.1h-2.9l0,0.1c0,0.2,0,0.4,0,0.5c0,0.1,0,0.1,0,0.2c0,0.1,0,0.1,0,0.2c0,0.4,0.2,0.9,0.5,1.4
	c0.4,0.7,1.1,1.5,1.6,2.1c0.3,0.3,0.5,0.6,0.7,0.9c0.1,0.1,0.2,0.2,0.2,0.3c0.1,0.1,0.1,0.2,0.1,0.2c0,0,0,0,0,0.1
	C211.3,79.8,211.2,80,211,80.1 M245.3,81.9c0,0-0.1,0-0.1,0l0,0l0,0l-0.1,0v0.7h4.3l0-0.7l-0.1,0h0c0,0-0.1,0-0.2-0.1
	c0,0-0.1-0.1-0.1-0.1c0,0-0.1-0.1-0.1-0.2v-7.1c0-0.1,0-0.1,0.1-0.1c0.1-0.1,0.2-0.1,0.2-0.1c0,0,0.1,0,0.1,0l0,0l0,0l0.1,0v-0.7
	h-4.3v0.8h0.1h0c0,0,0.1,0,0.2,0c0,0,0.1,0,0.1,0.1c0,0,0.1,0.1,0.1,0.1l0,7.1c0,0,0,0.1-0.1,0.1C245.5,81.8,245.4,81.8,245.3,81.9
	 M226.6,57.3c0.2,0.1,0.6,0.2,1.1,0.2c0.5,0.1,1.2,0.1,1.9,0.1c0.9,0,1.9,0,2.6-0.1c0.4,0,0.7-0.1,0.9-0.2c0.1,0,0.2-0.1,0.3-0.1
	c0.1,0,0.1-0.1,0.1-0.1c0-0.1-0.1-0.1-0.2-0.2c-0.3-0.2-1.1-0.4-2.7-0.6v-1.1l-0.3-0.5l0-0.5c0.2-0.1,0.3-0.2,0.3-0.3
	c0-0.1,0-0.1,0-0.1c0,0,0,0,0,0l0,0l-0.1,0l0,0l0,0c0,0,0,0-0.1,0c-0.1,0.1-0.3,0.2-0.5,0.2c-0.1,0-0.3,0-0.4-0.1
	c-0.1-0.1-0.2-0.2-0.2-0.4l0,0c0-0.3,0.2-0.5,0.5-0.5h0c0.1,0,0.2,0.1,0.4,0.2c0.1,0,0.1,0.1,0.1,0.1c0,0,0.1,0.1,0.1,0.1l0,0h0.1
	l0-0.1l0,0l0,0c0,0-0.3-0.5-0.8-0.6l0,0c-0.4,0-0.9,0.3-0.9,0.9c0,0.3,0.2,0.6,0.5,0.8v0.5l-0.3,0.6v1.1c-1,0.2-1.7,0.3-2.1,0.5
	c-0.2,0.1-0.4,0.1-0.5,0.2c-0.1,0.1-0.2,0.1-0.2,0.2C226.5,57.2,226.5,57.2,226.6,57.3 M245.7,49.5c0,0,0,0.1,0,0.2
	c0,0.3,0,0.9,0.3,1.5c0.2,0.6,0.6,1.2,1.4,1.7l0,10.8l0,0c2.6,2.5,4.3,5.4,4.8,7.6l0.1,0V52.7c0.8-0.5,1.3-1.3,1.5-2
	c0.2-0.7,0.2-1.2,0.2-1.2v-0.1h-1.7l0-7.6c0.8-0.5,1.2-1.3,1.5-1.9c0.2-0.6,0.2-1.2,0.2-1.2v0v-0.1h-1.7l0-9.6l-2.2-11.8
	c0.3,0,0.5-0.1,0.7-0.3c0.1-0.1,0.2-0.1,0.2-0.2c0.1-0.1,0.1-0.1,0.1-0.2c0-0.1,0-0.2,0-0.2c0,0,0-0.1,0-0.1l0,0l-0.1,0l0,0l0,0l0,0
	c-0.1,0.1-0.5,0.3-0.8,0.3c-0.2,0-0.4-0.1-0.5-0.2c-0.1-0.1-0.2-0.3-0.2-0.5c0,0,0,0,0-0.1c0-0.2,0.1-0.3,0.2-0.4
	c0.1-0.1,0.2-0.2,0.3-0.2c0,0,0.1,0,0.1,0c0.2,0,0.4,0.1,0.5,0.2c0.1,0.1,0.2,0.1,0.2,0.1c0,0,0.1,0,0.1,0l0,0l0,0h0.2l0-0.2l0,0
	l0,0c0,0-0.1-0.2-0.3-0.4c-0.2-0.2-0.5-0.4-0.9-0.4c0,0,0,0-0.1,0c-0.4,0-0.7,0.1-0.9,0.4c-0.2,0.2-0.4,0.6-0.4,1c0,0.1,0,0.1,0,0.2
	c0,0.3,0.2,0.6,0.4,0.8c0.2,0.2,0.5,0.3,0.8,0.4l-2.3,11.8v9.6l-1.7,0l0,0.1c0,0,0,0.1,0,0.2c0,0.3,0,0.9,0.3,1.5
	c0.2,0.6,0.6,1.2,1.4,1.7l0,7.4L245.7,49.5L245.7,49.5z M240.1,76.6h-2.9v6.1h2.9V76.6z M241.2,76.3c0.1,0.1,0.2,0.2,0.3,0.5
	c0,1.7,0,5.7,0,5.7v0.1h3.2v-6c0-0.6-0.2-1.4-0.6-2c-0.4-0.6-1-1.1-1.8-1.1c-1.4,0-2.8,0-4.1,0c-2.6,0-4.8,0-5.1,0h-0.1v9.1h2.9
	v-6.4c2.4,0,4.3,0,5.1,0C241,76.2,241.1,76.2,241.2,76.3 M237.6,92.2h2.5v-1.2h-2.5v-1.2h3v-1.2h-5v6.2h5.2v-1.2h-3.2V92.2z
	 M232.5,94.7h2v-6.2h-2V94.7z M241.6,94.7h2v-2.3h2.1v-1.2h-2.1v-1.4h2.9v-1.2h-4.8V94.7z M253.4,76.4c0.4-0.4,0.9-0.5,1.6-0.5h2
	v-2.3h-2.6c-0.9,0-2.1,0.2-3.1,0.9c-1,0.7-1.8,1.8-1.8,3.7c0,0,0,0.1,0,0.1c0,1.4,0.5,2.5,1.3,3.2c0.8,0.8,2,1.2,3.4,1.2h2.8v-2.3
	h-0.1c-0.5,0-1,0-1.4,0c-0.2,0-0.3,0-0.5,0c-0.6-0.1-1.2-0.3-1.6-0.6c-0.4-0.4-0.7-0.8-0.7-1.6c0,0,0-0.1,0-0.1
	C252.8,77.3,253,76.8,253.4,76.4 M207.1,81.9L207.1,81.9L207.1,81.9c-0.1,0-0.2,0-0.3,0c0,0-0.1,0-0.1-0.1c0,0-0.1-0.1-0.1-0.1v-7.1
	c0-0.1,0-0.1,0.1-0.1c0.1-0.1,0.2-0.1,0.2-0.1c0,0,0.1,0,0.1,0l0,0l0,0l0.1,0v-0.7h-4.3v0.1v0.7h0.1h0c0,0,0.1,0,0.2,0
	c0,0,0.1,0,0.1,0.1c0,0,0.1,0.1,0.1,0.1l0,7.1c0,0,0,0.1-0.1,0.1c-0.1,0.1-0.2,0.1-0.3,0.1c0,0-0.1,0-0.1,0l0,0l0,0l-0.1,0v0.7h4.3
	L207.1,81.9z M207.9,52.7l0,18l0.1,0c1-2.5,2.2-4.5,4.8-7.1l0,0l0-10.8c0.7-0.4,1.2-1.1,1.4-1.7c0.2-0.6,0.3-1.2,0.3-1.5
	c0-0.1,0-0.2,0-0.2l0-0.1l-1.7,0l0-7.4c0.7-0.4,1.2-1.1,1.4-1.7c0.2-0.6,0.3-1.2,0.3-1.5c0-0.1,0-0.2,0-0.2l0-0.1l-1.7,0v-9.6
	l-2.2-11.8c0.3-0.1,0.5-0.1,0.6-0.2c0.1,0,0.1-0.1,0.1-0.1c0,0,0.1-0.1,0.1-0.1c0.1-0.2,0.1-0.4,0.1-0.4l0,0l-0.1-0.1l0,0l0,0l0,0
	c-0.1,0.1-0.5,0.3-0.8,0.3c-0.2,0-0.4-0.1-0.5-0.2c-0.1-0.1-0.2-0.3-0.2-0.6l0,0c0-0.3,0.1-0.4,0.2-0.5c0.1-0.1,0.3-0.2,0.4-0.2h0
	c0.1,0,0.3,0.1,0.4,0.2c0.1,0,0.1,0.1,0.1,0.1c0,0,0,0,0,0l0,0l0,0l0.4,0.1l0-0.2l0,0l0,0c0,0-0.1-0.2-0.3-0.4
	c-0.2-0.2-0.5-0.4-0.9-0.4c0,0,0,0-0.1,0c-0.3,0-0.6,0.1-0.9,0.3c-0.3,0.2-0.5,0.5-0.5,1.1c0,0,0,0.1,0,0.1c0,0.3,0.2,0.6,0.4,0.8
	c0.2,0.2,0.5,0.3,0.8,0.4l-2.2,11.8l0,9.6h-1.7v0.1v0c0,0.1,0,0.6,0.2,1.2c0.2,0.6,0.6,1.4,1.5,1.9l0,7.6h-1.7v0.1v0
	c0,0,0,0.6,0.2,1.2C206.6,51.4,207,52.2,207.9,52.7 M219.8,92c-0.2-0.1,0.2,0.1-0.5-0.2c0,0,0.8-0.5,0.8-1.5c0-1.1-0.8-1.8-2.1-1.8
	h-3.4v6.2h2v-2.1h1.2c0.9,0.2,0.4,0.9,0.7,2.1c0,0,1.2,0,1.9,0C220.1,94.3,220.8,92.5,219.8,92 M216.6,90.9c0-0.4,0-1.1,0-1.1
	c0.7,0,1.7-0.2,1.7,0.5C218.3,91.1,217.1,90.9,216.6,90.9 M229.1,88.4h-2v6.2h4.8v-1.2h-2.9V88.4z M223,92.2h2.5v-1.2H223v-1.2h3
	v-1.2h-5v6.2h5.2v-1.2H223V92.2z"/>
</svg>
