<?xml version="1.0" standalone="no"?>
<!DOCTYPE svg PUBLIC "-//W3C//DTD SVG 20010904//EN"
 "http://www.w3.org/TR/2001/REC-SVG-20010904/DTD/svg10.dtd">
<svg version="1.0" xmlns="http://www.w3.org/2000/svg"
 width="415.000000pt" height="139.000000pt" viewBox="0 0 415.000000 139.000000"
 preserveAspectRatio="xMidYMid meet">

<g transform="translate(0.000000,139.000000) scale(0.100000,-0.100000)"
fill="#000000" stroke="none">
<path d="M933 1327 c20 -6 36 -15 34 -21 -3 -6 0 -20 6 -30 8 -16 6 -18 -9
-12 -10 4 -15 4 -12 1 4 -4 -2 -24 -13 -45 -19 -35 -19 -41 -5 -74 8 -20 22
-39 30 -42 21 -8 10 -24 -15 -24 -10 0 -19 -5 -19 -10 0 -7 17 -8 48 -4 45 6
49 4 60 -20 14 -32 58 -45 79 -23 25 25 9 42 -50 56 -80 18 -121 48 -125 92
-4 51 26 85 88 98 72 15 137 1 173 -39 15 -17 26 -37 24 -43 -2 -7 -25 -13
-51 -15 -40 -3 -51 1 -63 18 -17 24 -68 25 -68 1 0 -10 24 -21 70 -32 52 -14
77 -26 98 -49 31 -34 34 -58 12 -100 -52 -101 -272 -81 -300 27 -3 14 -8 23
-11 20 -8 -8 21 -70 39 -86 21 -17 24 -121 5 -122 -7 0 -4 -4 7 -9 11 -5 73
-9 138 -9 l118 -1 -3 -32 -3 -33 -77 -3 c-75 -3 -78 -4 -78 -27 0 -24 3 -25
65 -25 l65 0 0 -35 0 -35 -65 0 -65 0 0 -65 0 -65 -55 0 -55 0 0 160 c0 88 -3
160 -7 160 -5 0 -7 -71 -6 -157 2 -136 4 -159 19 -170 10 -7 15 -15 12 -19 -4
-3 -2 -18 2 -34 8 -27 6 -29 -23 -32 l-32 -3 0 -165 -1 -165 3 164 4 163 114
-3 c96 -4 118 -7 142 -25 61 -45 83 -153 45 -223 -30 -55 -71 -71 -184 -71
-54 0 -100 -4 -103 -10 -3 -5 3 -10 15 -10 32 0 19 -24 -16 -30 -48 -9 112
-20 298 -20 l168 0 0 660 0 660 -252 -1 c-197 -1 -245 -4 -215 -12z"/>
<path d="M3300 1225 c0 -106 -1 -115 -21 -126 -27 -14 -183 -7 -202 10 -8 6
-17 29 -21 50 -7 49 -45 81 -93 81 -40 0 -67 -12 -105 -48 l-28 -26 0 27 c0
17 -5 27 -15 27 -10 0 -15 -16 -17 -62 -3 -59 -5 -63 -28 -66 -43 -5 -65 20
-66 75 0 36 -5 49 -17 51 -14 3 -17 -5 -17 -47 0 -75 -13 -81 -182 -81 l-138
0 0 30 c0 63 -51 120 -105 120 -33 0 -28 -24 6 -28 41 -6 59 -31 59 -79 l0
-44 -67 2 c-44 2 -68 -2 -71 -9 -3 -9 57 -12 235 -12 200 0 242 3 261 16 20
14 24 14 44 0 18 -13 51 -16 153 -16 102 0 135 3 153 16 20 14 24 14 44 0 17
-12 49 -16 129 -16 104 0 108 1 128 26 18 23 21 41 21 135 0 102 -1 109 -20
109 -19 0 -20 -7 -20 -115z m-298 -32 c22 -20 23 -51 1 -75 -13 -14 -31 -18
-90 -18 -40 0 -73 2 -73 5 0 4 7 19 15 34 32 62 107 90 147 54z"/>
<path d="M3360 1205 c0 -113 2 -135 15 -135 13 0 15 22 15 135 0 113 -2 135
-15 135 -13 0 -15 -22 -15 -135z"/>
<path d="M1734 1299 c-10 -17 13 -36 27 -22 12 12 4 33 -11 33 -5 0 -12 -5
-16 -11z"/>
<path d="M1794 1299 c-10 -17 13 -36 27 -22 12 12 4 33 -11 33 -5 0 -12 -5
-16 -11z"/>
<path d="M2474 1299 c-10 -17 13 -36 27 -22 12 12 4 33 -11 33 -5 0 -12 -5
-16 -11z"/>
<path d="M1728 1210 c-30 -31 -31 -37 -12 -99 7 -23 6 -24 -55 -19 -75 5 -103
28 -106 85 -2 27 -8 39 -20 42 -16 3 -17 -3 -12 -45 5 -37 14 -56 37 -76 30
-27 33 -28 151 -28 120 0 121 0 150 29 17 18 29 40 29 56 0 16 -12 38 -29 56
-41 41 -91 40 -133 -1z m119 -26 c15 -24 15 -29 2 -53 -19 -35 -69 -41 -98
-12 -26 26 -26 46 -1 71 29 29 76 26 97 -6z"/>
<path d="M1979 1211 c-38 -39 -38 -78 -1 -114 20 -19 39 -27 65 -27 30 0 37
-4 37 -20 0 -24 -28 -40 -69 -40 -22 0 -31 -5 -31 -16 0 -29 80 -11 113 26 24
27 27 38 27 99 0 54 -4 74 -21 95 -29 37 -81 36 -120 -3z m98 -17 c3 -8 6 -32
6 -52 1 -35 0 -37 -35 -40 -28 -2 -40 2 -52 20 -21 30 -20 44 4 68 24 24 68
26 77 4z"/>
<path d="M2200 731 c0 -117 1 -120 26 -140 29 -23 83 -28 115 -10 15 8 25 6
46 -10 33 -27 83 -27 116 0 21 16 31 18 46 10 31 -17 163 -14 189 5 20 14 24
14 44 0 17 -12 50 -16 145 -16 l123 0 0 48 c0 64 -28 108 -78 123 -32 9 -45 9
-67 -2 -33 -16 -50 -47 -19 -34 73 31 132 1 129 -65 l-2 -35 -111 -3 -112 -3
-10 26 c-6 15 -10 42 -10 61 0 24 -5 34 -15 34 -11 0 -15 -12 -15 -49 0 -29
-5 -53 -14 -60 -21 -18 -167 -10 -176 9 -29 63 -39 77 -69 92 -25 13 -39 14
-62 6 -33 -11 -69 -56 -69 -86 0 -23 -18 -32 -64 -32 -51 0 -56 12 -56 137 0
94 -3 113 -15 113 -12 0 -15 -20 -15 -119z m290 -61 c24 -24 25 -38 4 -68 -30
-44 -114 -18 -114 35 0 22 39 53 65 53 14 0 34 -9 45 -20z"/>
<path d="M3268 728 l-3 -123 -32 -3 -33 -3 0 85 c0 79 -2 86 -20 86 -18 0 -20
-7 -20 -84 0 -83 0 -85 -25 -88 -55 -7 -27 -23 44 -26 65 -3 77 0 97 19 23 21
24 29 24 141 0 97 -3 118 -15 118 -12 0 -15 -23 -17 -122z"/>
<path d="M3360 711 c0 -120 2 -141 15 -141 13 0 15 20 13 137 -2 98 -6 138
-15 141 -10 3 -13 -29 -13 -137z"/>
<path d="M2584 789 c-10 -17 13 -36 27 -22 12 12 4 33 -11 33 -5 0 -12 -5 -16
-11z"/>
<path d="M2640 786 c0 -8 4 -17 9 -20 11 -7 33 18 24 27 -12 12 -33 7 -33 -7z"/>
<path d="M1752 734 c-29 -20 -28 -36 5 -85 40 -60 27 -73 -74 -77 -91 -3 -124
13 -126 61 -2 18 -8 27 -19 27 -22 0 -22 -10 -4 -55 20 -48 60 -65 151 -65 67
0 79 3 100 25 31 30 31 40 0 90 -31 50 -31 65 -1 65 19 0 31 -12 56 -55 50
-88 64 -95 191 -95 90 0 109 3 109 15 0 11 -12 15 -48 15 -83 0 -120 52 -71
101 21 21 40 22 97 4 35 -11 26 11 -13 29 -42 20 -75 13 -111 -22 -23 -23 -25
-32 -20 -69 l6 -43 -35 0 c-32 0 -37 5 -72 64 -33 56 -65 86 -91 86 -4 0 -18
-7 -30 -16z"/>
<path d="M2924 529 c-7 -12 15 -31 28 -23 4 3 8 12 8 20 0 17 -26 19 -36 3z"/>
<path d="M1626 511 c-7 -11 18 -33 27 -24 4 3 7 12 7 20 0 15 -26 18 -34 4z"/>
<path d="M1684 509 c-7 -12 15 -31 28 -23 4 3 8 12 8 20 0 17 -26 19 -36 3z"/>
<path d="M3200 235 c0 -138 -6 -145 -123 -145 -108 0 -127 12 -127 81 0 37 -4
49 -15 49 -11 0 -15 -12 -15 -48 0 -68 -18 -82 -104 -82 -95 0 -106 8 -106 75
0 42 -3 55 -15 55 -11 0 -15 -11 -15 -43 0 -56 -22 -87 -61 -87 -40 0 -69 16
-69 40 0 27 -46 77 -76 83 -56 10 -114 -34 -114 -87 0 -8 -9 -20 -19 -26 -26
-13 -316 -13 -342 0 -15 9 -19 22 -19 65 0 48 -2 55 -20 55 -18 0 -20 -7 -20
-55 0 -68 -11 -75 -114 -75 -80 0 -106 13 -106 51 0 76 -99 128 -156 81 -48
-39 -52 -84 -12 -129 31 -33 72 -38 113 -15 l34 21 38 -20 c31 -17 52 -20 110
-16 40 2 82 11 94 19 20 13 26 12 58 -4 29 -15 59 -18 166 -18 71 0 147 5 167
10 31 9 42 7 70 -10 43 -26 71 -25 104 3 26 22 29 23 70 9 40 -13 47 -13 81 4
37 18 39 18 73 1 46 -24 160 -19 190 8 19 17 21 17 40 0 33 -29 172 -33 224
-6 38 20 41 20 59 3 13 -11 34 -17 65 -16 72 2 82 21 82 160 0 95 -3 114 -15
114 -12 0 -15 -19 -15 -109 0 -124 -8 -141 -65 -141 -57 0 -65 17 -65 141 0
90 -3 109 -15 109 -12 0 -15 -18 -15 -105z m-1542 -41 c28 -19 29 -57 2 -84
-55 -55 -135 24 -83 82 20 22 51 23 81 2z m830 -20 c32 -22 27 -73 -10 -93
-23 -13 -30 -13 -52 -1 -40 21 -45 58 -12 87 32 27 44 28 74 7z"/>
<path d="M1040 247 l0 -84 33 5 c42 5 57 26 57 79 0 50 -26 83 -65 83 -25 0
-25 -1 -25 -83z"/>
<path d="M1573 294 c-7 -19 2 -28 22 -21 19 8 19 23 0 31 -9 3 -18 -1 -22 -10z"/>
<path d="M1637 303 c-4 -3 -7 -12 -7 -20 0 -15 26 -18 34 -4 7 11 -18 33 -27
24z"/>
<path d="M2774 299 c-10 -17 13 -36 27 -22 12 12 4 33 -11 33 -5 0 -12 -5 -16
-11z"/>
<path d="M2836 303 c-12 -12 -6 -33 9 -33 8 0 15 6 15 14 0 17 -14 28 -24 19z"/>
<path d="M2605 291 c-3 -5 -1 -12 5 -16 12 -7 30 2 30 16 0 12 -27 12 -35 0z"/>
<path d="M1783 32 c-8 -5 -9 -13 -3 -22 7 -12 12 -12 22 -2 14 14 -1 35 -19
24z"/>
<path d="M1834 29 c-10 -17 13 -36 27 -22 12 12 4 33 -11 33 -5 0 -12 -5 -16
-11z"/>
</g>
</svg>
