<?xml version="1.0" standalone="no"?>
<!DOCTYPE svg PUBLIC "-//W3C//DTD SVG 20010904//EN"
 "http://www.w3.org/TR/2001/REC-SVG-20010904/DTD/svg10.dtd">
<svg version="1.0" xmlns="http://www.w3.org/2000/svg"
 width="768.000000pt" height="378.000000pt" viewBox="0 0 768.000000 378.000000"
 preserveAspectRatio="xMidYMid meet">

<g transform="translate(0.000000,378.000000) scale(0.100000,-0.100000)"
fill="#000000" stroke="none">
<path d="M1936 3709 c-97 -23 -159 -100 -159 -198 0 -62 16 -101 60 -145 35
-36 81 -56 128 -56 42 0 44 -10 10 -54 -32 -42 -111 -98 -251 -177 -153 -87
-309 -193 -377 -259 -130 -123 -233 -291 -273 -445 -28 -105 -25 -293 5 -405
76 -284 285 -537 556 -672 126 -63 262 -102 390 -112 39 -3 61 -3 50 0 -11 3
-56 14 -100 25 -356 90 -689 389 -812 730 -38 105 -44 267 -14 391 63 267 173
397 541 645 242 163 281 196 320 278 21 43 37 65 53 69 31 7 87 64 105 106 63
151 -73 315 -232 279z"/>
<path d="M2461 3598 c-126 -62 -146 -218 -41 -320 l49 -47 -39 -47 c-58 -71
-172 -159 -327 -253 -216 -132 -332 -209 -406 -268 l-69 -55 23 -24 c12 -13
28 -24 35 -24 7 0 48 27 91 59 43 33 157 107 253 166 96 59 199 125 228 148
78 60 147 141 189 223 l37 73 46 -6 c113 -13 220 84 220 200 -1 147 -156 241
-289 175z"/>
<path d="M3195 2830 c-47 -91 -161 -180 -337 -263 -238 -112 -363 -226 -461
-422 -42 -84 -100 -267 -122 -385 -9 -47 -19 -92 -22 -100 -3 -8 -24 44 -47
115 -94 289 -167 375 -460 542 -60 35 -113 63 -117 63 -4 0 -16 -24 -28 -52
-46 -116 -55 -160 -55 -283 -1 -106 2 -130 28 -208 61 -187 201 -346 398 -455
131 -73 238 -101 477 -129 l43 -5 -23 -24 c-30 -32 -147 -89 -224 -109 -82
-22 -213 -45 -252 -45 -18 0 -33 -4 -33 -10 0 -16 223 -12 330 5 169 28 351
102 510 208 95 63 281 250 342 342 220 338 268 719 137 1092 -17 48 -39 104
-49 122 l-17 35 -18 -34z"/>
<path d="M1512 2488 c-201 -264 -196 -600 13 -894 57 -79 176 -189 256 -237
133 -78 315 -129 453 -126 l61 2 -70 8 c-82 11 -224 49 -292 80 -149 68 -305
206 -385 340 -80 136 -116 301 -97 451 15 124 60 225 155 356 16 22 16 24 -6
47 -13 14 -29 25 -36 25 -6 0 -30 -24 -52 -52z"/>
<path d="M3991 2205 c-92 -21 -184 -67 -245 -125 -73 -69 -188 -240 -162 -240
2 0 30 17 62 38 93 61 89 63 89 -42 0 -78 4 -99 27 -148 18 -39 36 -62 58 -73
54 -28 160 -45 283 -45 91 0 123 -4 142 -16 51 -33 17 -104 -59 -123 -28 -7
-148 -11 -315 -11 l-270 0 -11 -42 c-7 -24 -20 -74 -31 -113 -10 -38 -19 -73
-19 -78 0 -5 159 -7 353 -5 390 5 410 7 504 72 88 61 171 211 181 328 12 155
-98 218 -386 218 -95 0 -113 3 -136 21 -30 24 -34 63 -11 96 31 44 97 53 381
53 l261 0 32 118 c17 65 31 122 31 125 0 4 -156 7 -347 6 -256 0 -365 -4 -412
-14z"/>
<path d="M4883 2093 c-23 -71 -98 -301 -167 -513 -69 -212 -126 -391 -126
-399 0 -11 75 -12 433 -6 501 9 483 5 601 115 90 85 144 200 222 475 18 63 36
106 49 117 27 23 94 53 101 45 4 -4 -196 -635 -233 -734 -4 -10 34 -13 170
-13 l176 0 63 190 62 190 220 2 219 3 33 97 32 98 -217 2 -218 3 30 103 30
102 224 0 c170 0 225 3 228 13 2 6 22 61 44 121 23 60 41 111 41 114 0 2 -145
2 -322 0 -305 -4 -327 -5 -393 -27 -110 -37 -210 -113 -277 -211 l-17 -25 -1
25 c-2 115 -92 203 -235 229 -35 7 -195 11 -395 11 l-336 0 -41 -127z m636
-79 c37 -26 51 -72 40 -125 -32 -141 -145 -419 -189 -464 l-30 -30 -170 -3
c-94 -2 -170 -2 -170 1 0 3 13 44 145 455 l59 182 146 0 c118 0 150 -3 169
-16z"/>
<path d="M6593 874 c-7 -3 -13 -13 -13 -23 0 -9 -5 -22 -12 -29 -9 -9 0 -12
43 -11 42 1 47 3 24 8 -40 8 -50 46 -11 39 17 -4 25 -1 23 6 -4 12 -35 18 -54
10z"/>
<path d="M1582 713 c3 -156 3 -158 26 -161 l23 -3 -3 158 c-3 156 -3 158 -26
161 l-23 3 3 -158z"/>
<path d="M3110 750 c0 -138 -7 -160 -51 -160 -48 0 -69 16 -69 53 0 43 -29 99
-60 114 -32 16 -91 16 -125 1 -31 -14 -55 -56 -55 -95 0 -44 -26 -73 -64 -73
-46 0 -56 15 -56 87 0 52 -3 64 -20 73 -33 17 -40 3 -40 -75 0 -78 -5 -85 -55
-85 -47 0 -51 7 -47 74 3 49 0 66 -13 79 -34 35 -45 22 -45 -56 0 -43 -5 -78
-12 -85 -7 -7 -31 -12 -55 -12 l-43 0 0 73 c0 72 -10 97 -37 97 -10 0 -13 -22
-13 -85 l0 -85 -53 0 c-29 0 -58 5 -65 12 -7 7 -12 33 -12 59 0 49 -18 76 -45
65 -11 -4 -15 -21 -15 -65 0 -63 -6 -71 -58 -71 -38 0 -48 10 -61 55 -14 50
-27 67 -71 94 -44 26 -81 27 -111 1 l-24 -19 33 -1 c63 0 104 -35 126 -107 7
-23 6 -23 -88 -23 -89 0 -96 -2 -96 -20 0 -19 10 -19 428 -19 236 1 435 5 442
9 8 5 22 4 34 -2 31 -17 111 -14 139 5 14 9 28 13 31 8 3 -4 25 -14 49 -20 36
-11 49 -10 84 4 31 13 46 14 62 6 11 -6 45 -11 76 -11 46 0 60 4 81 25 24 24
25 28 22 157 -3 129 -4 133 -25 136 -23 3 -23 2 -23 -118z m-209 -31 c28 -15
41 -53 28 -86 -12 -33 -26 -43 -59 -43 -44 0 -70 26 -70 70 0 58 50 87 101 59z"/>
<path d="M3232 713 c3 -156 3 -158 26 -161 l23 -3 -3 158 c-3 156 -3 158 -26
161 l-23 3 3 -158z"/>
<path d="M4750 736 c0 -147 0 -146 -64 -146 -44 0 -56 16 -56 76 0 38 -4 53
-16 58 -30 11 -34 6 -34 -48 0 -64 -16 -86 -64 -86 -44 0 -56 16 -56 71 0 49
-18 76 -45 65 -11 -4 -15 -21 -15 -65 0 -56 -2 -61 -25 -67 -14 -3 -36 -3 -50
0 -25 6 -28 13 -40 87 -3 20 -17 47 -31 60 -21 20 -36 24 -86 24 -55 0 -62 -3
-89 -33 -22 -24 -29 -42 -29 -71 0 -47 -20 -71 -60 -71 -42 0 -60 24 -60 80 0
34 -4 50 -16 54 -30 12 -34 6 -34 -52 0 -32 -5 -63 -12 -70 -7 -7 -35 -12 -64
-12 l-52 0 -4 61 c-4 54 -9 66 -36 90 -55 49 -157 36 -188 -22 -24 -48 -18
-97 16 -129 39 -36 69 -41 268 -41 92 0 180 0 195 0 15 0 40 6 55 13 23 11 32
11 62 -5 36 -18 92 -16 117 5 9 7 22 7 40 0 28 -11 451 -16 486 -6 35 11 47
57 47 177 0 117 -6 137 -42 137 -16 0 -18 -12 -18 -134z m-1084 -14 c20 -13
34 -50 34 -93 l0 -42 -50 5 c-28 3 -59 13 -70 23 -24 22 -26 72 -3 97 16 18
68 24 89 10z m549 -17 c46 -46 22 -115 -41 -115 -43 0 -74 29 -74 70 0 64 70
91 115 45z"/>
<path d="M4880 710 l0 -160 25 0 25 0 0 154 c0 158 -2 166 -41 166 -5 0 -9
-70 -9 -160z"/>
<path d="M952 838 c2 -15 10 -23 23 -23 13 0 21 8 23 23 3 18 -1 22 -23 22
-22 0 -26 -4 -23 -22z"/>
<path d="M1032 848 c-13 -13 1 -38 22 -38 18 0 35 21 29 36 -6 17 -35 18 -51
2z"/>
<path d="M3565 850 c-10 -17 20 -44 40 -36 9 3 15 14 13 23 -4 21 -43 30 -53
13z"/>
<path d="M3645 850 c-10 -17 20 -44 40 -36 9 3 15 14 13 23 -4 21 -43 30 -53
13z"/>
<path d="M5214 845 c-4 -9 -2 -21 4 -27 15 -15 54 1 50 20 -4 23 -46 28 -54 7z"/>
<path d="M5294 845 c-4 -9 -2 -21 4 -27 16 -16 47 -5 47 17 0 26 -42 34 -51
10z"/>
<path d="M2024 795 c-4 -9 -2 -21 4 -27 16 -16 47 -5 47 17 0 26 -42 34 -51
10z"/>
<path d="M2100 795 c-9 -11 -10 -19 -3 -26 17 -17 48 -6 48 16 0 25 -28 31
-45 10z"/>
<path d="M4404 795 c-4 -9 -2 -21 4 -27 16 -16 47 -5 47 17 0 26 -42 34 -51
10z"/>
<path d="M4534 795 c-4 -9 -2 -21 4 -27 16 -16 47 -5 47 17 0 26 -42 34 -51
10z"/>
<path d="M4612 798 c-13 -13 2 -38 23 -38 21 0 36 25 23 38 -7 7 -17 12 -23
12 -6 0 -16 -5 -23 -12z"/>
<path d="M930 743 c-61 -55 -49 -141 23 -173 60 -27 294 -31 331 -6 15 9 27
12 31 6 12 -19 78 -30 117 -20 51 14 78 51 78 107 0 55 -12 78 -50 98 -91 47
-190 -13 -190 -114 0 -38 -23 -51 -89 -51 l-51 0 0 50 c0 27 -5 60 -11 73 -28
61 -136 78 -189 30z m134 -35 c9 -13 16 -43 16 -72 l0 -49 -51 6 c-60 7 -89
29 -89 66 0 45 26 71 70 71 29 0 43 -6 54 -22z m374 6 c27 -18 31 -84 6 -108
-22 -23 -77 -20 -99 4 -57 63 23 153 93 104z"/>
<path d="M5210 758 c-55 -29 -73 -116 -32 -161 39 -44 65 -47 387 -46 170 0
308 5 311 10 3 5 13 5 24 -1 19 -10 462 -12 488 -2 36 13 59 161 30 190 -28
28 -38 13 -38 -56 0 -86 -12 -105 -65 -100 l-40 3 -3 72 c-2 60 -6 75 -23 83
-31 17 -39 3 -39 -69 0 -39 -5 -72 -12 -79 -7 -7 -31 -12 -55 -12 l-43 0 0 79
c0 78 -6 91 -41 91 -5 0 -9 -38 -9 -85 l0 -85 -53 0 c-29 0 -58 5 -65 12 -7 7
-12 39 -12 75 0 52 -3 64 -20 73 -33 17 -40 3 -40 -75 0 -78 -5 -85 -55 -85
-47 0 -51 7 -47 74 3 49 0 66 -13 79 -34 35 -45 22 -45 -56 0 -43 -5 -78 -12
-85 -7 -7 -31 -12 -55 -12 l-43 0 0 73 c0 72 -10 97 -37 97 -10 0 -13 -22 -13
-85 l0 -85 -75 0 -75 0 0 59 c0 83 -25 113 -101 118 -32 2 -64 -1 -79 -9z
m113 -45 c8 -10 17 -40 19 -68 l3 -50 -55 2 c-44 1 -58 6 -73 24 -22 27 -17
77 10 97 24 18 77 15 96 -5z"/>
<path d="M6543 760 c-56 -23 -76 -119 -34 -164 25 -27 76 -46 123 -46 70 0 17
-45 -67 -57 -28 -3 -45 -11 -45 -19 0 -21 45 -27 100 -14 39 9 58 21 81 50 29
36 34 38 85 38 33 0 63 5 78 16 15 9 27 12 31 6 3 -5 22 -14 43 -19 44 -13
101 0 126 28 23 25 32 93 17 129 -22 53 -99 77 -165 52 -35 -13 -66 -66 -66
-112 0 -44 -19 -58 -79 -58 l-41 0 0 40 c0 52 -21 103 -51 124 -25 17 -99 21
-136 6z m105 -38 c15 -10 32 -66 32 -104 0 -25 -3 -28 -35 -28 -20 0 -51 7
-70 14 -32 14 -35 19 -35 55 0 23 7 46 16 55 16 17 70 21 92 8z m372 -12 c12
-12 20 -33 20 -52 0 -85 -109 -94 -134 -11 -7 22 8 62 28 75 21 14 66 8 86
-12z"/>
<path d="M3833 495 c-7 -19 13 -36 37 -32 8 1 15 11 15 22 0 26 -42 34 -52 10z"/>
<path d="M3910 490 c0 -25 25 -36 45 -20 20 16 7 40 -21 40 -17 0 -24 -6 -24
-20z"/>
<path d="M983 345 c-30 -13 -33 -18 -33 -58 0 -60 23 -80 100 -85 l60 -4 0
-54 0 -54 -40 0 c-29 0 -40 4 -40 15 0 11 -11 15 -41 15 -38 0 -40 -1 -37 -28
l3 -27 92 1 c114 1 143 15 143 72 0 59 -17 74 -91 81 l-64 6 0 55 c0 55 0 55
33 58 22 2 34 -2 38 -12 4 -11 19 -16 45 -16 35 0 39 3 39 25 0 25 -1 25 -87
25 -53 -1 -101 -6 -120 -15z"/>
<path d="M1850 315 c0 -33 -4 -45 -15 -45 -8 0 -15 -7 -15 -15 0 -8 7 -15 15
-15 12 0 15 -14 15 -68 0 -92 13 -104 120 -110 69 -4 80 -2 80 12 0 13 -11 16
-60 16 l-60 0 0 75 0 75 41 0 c52 0 48 24 -4 28 -37 3 -37 4 -37 48 l0 44 -40
0 -40 0 0 -45z"/>
<path d="M3140 239 c0 -66 5 -129 10 -139 14 -27 84 -43 145 -35 71 9 85 25
85 99 0 34 -4 67 -8 74 -11 16 -67 32 -114 32 l-38 0 0 45 0 45 -40 0 -40 0 0
-121z m160 -74 l0 -75 -40 0 -40 0 0 75 0 75 40 0 40 0 0 -75z"/>
<path d="M3432 213 l3 -148 38 -3 37 -3 0 141 0 140 -26 10 c-55 21 -55 22
-52 -137z"/>
<path d="M4002 213 l3 -148 90 0 c136 1 135 0 135 149 l0 124 -31 11 c-18 6
-70 11 -116 11 l-84 0 3 -147z m156 0 l3 -123 -41 0 -40 0 0 126 0 125 38 -3
37 -3 3 -122z"/>
<path d="M5160 209 l0 -150 38 3 37 3 3 130 c3 123 2 131 -19 148 -12 9 -30
17 -40 17 -18 0 -19 -10 -19 -151z"/>
<path d="M6940 315 c0 -33 -4 -45 -15 -45 -8 0 -15 -7 -15 -15 0 -8 7 -15 15
-15 12 0 15 -14 15 -68 0 -92 13 -104 120 -110 69 -4 80 -2 80 12 0 13 -11 16
-60 16 l-60 0 0 75 0 75 40 0 c29 0 40 4 40 15 0 11 -11 15 -40 15 l-40 0 0
45 0 45 -40 0 -40 0 0 -45z"/>
<path d="M1247 263 c-4 -3 -7 -41 -7 -83 0 -109 8 -114 152 -115 80 0 112 3
115 13 3 6 -2 12 -11 12 -13 0 -16 15 -16 90 l0 90 -40 0 -40 0 0 -90 0 -90
-40 0 -40 0 0 90 0 90 -33 0 c-19 0 -37 -3 -40 -7z"/>
<path d="M1604 261 c-44 -11 -54 -19 -54 -45 0 -35 26 -50 94 -56 60 -5 61 -5
64 -37 3 -32 2 -33 -36 -33 -26 0 -42 5 -46 15 -3 9 -19 15 -41 15 -32 0 -35
-2 -35 -30 l0 -30 78 1 c42 0 93 5 112 12 31 11 35 16 35 47 0 42 -28 60 -97
60 -47 0 -48 1 -48 30 0 28 2 30 40 30 29 0 40 -4 40 -15 0 -10 11 -15 35 -15
32 0 35 2 35 30 l0 30 -72 -1 c-40 -1 -87 -4 -104 -8z"/>
<path d="M2160 263 c-53 -10 -43 -23 18 -23 54 0 62 -2 62 -19 0 -15 -10 -19
-54 -24 -82 -8 -98 -20 -94 -70 3 -38 6 -43 38 -54 19 -7 79 -12 133 -12 80
-1 97 2 97 14 0 8 -9 15 -20 15 -19 0 -20 7 -20 90 l0 90 -67 -1 c-38 -1 -79
-4 -93 -6z m80 -133 c0 -39 -1 -40 -35 -40 -34 0 -35 1 -35 40 0 39 1 40 35
40 34 0 35 -1 35 -40z"/>
<path d="M2400 165 l0 -105 35 0 35 0 0 94 c0 52 -3 97 -7 99 -5 2 -20 7 -35
11 l-28 6 0 -105z"/>
<path d="M2520 256 c0 -9 7 -16 15 -16 11 0 15 -19 17 -87 l3 -88 35 0 35 0 3
88 3 87 39 0 40 0 0 -90 0 -90 35 0 35 0 0 89 c0 70 -3 91 -17 102 -11 10 -53
15 -130 18 -99 3 -113 1 -113 -13z"/>
<path d="M2910 263 c-53 -10 -43 -23 18 -23 54 0 62 -2 62 -19 0 -15 -10 -19
-54 -24 -82 -8 -98 -20 -94 -70 3 -38 6 -43 38 -54 19 -7 79 -12 133 -12 80
-1 97 2 97 14 0 8 -9 15 -20 15 -19 0 -20 7 -20 90 l0 90 -67 -1 c-38 -1 -79
-4 -93 -6z m85 -133 c0 -33 -2 -35 -37 -38 l-38 -3 0 41 0 41 38 -3 c35 -3 37
-5 37 -38z"/>
<path d="M3610 258 l-35 -13 -3 -77 c-3 -71 -1 -78 20 -90 29 -16 155 -16 186
0 12 7 22 19 22 27 0 21 -66 20 -74 0 -3 -9 -19 -15 -41 -15 -33 0 -35 2 -35
35 l0 35 75 0 75 0 0 40 c0 30 -5 42 -21 51 -32 17 -129 21 -169 7z m115 -48
c0 -22 -5 -25 -37 -28 -36 -3 -38 -2 -38 28 0 30 2 31 38 28 32 -3 37 -6 37
-28z"/>
<path d="M4345 263 c-43 -11 -55 -33 -55 -99 0 -58 2 -65 27 -81 54 -36 213
-15 213 27 0 6 -18 10 -40 10 -29 0 -40 -4 -40 -15 0 -11 -11 -15 -40 -15 -39
0 -40 1 -40 35 l0 35 80 0 80 0 0 33 c0 49 -25 67 -101 72 -35 2 -73 1 -84 -2z
m105 -53 c0 -28 -2 -30 -40 -30 -38 0 -40 2 -40 30 0 28 2 30 40 30 38 0 40
-2 40 -30z"/>
<path d="M4580 205 l0 -64 52 -36 c29 -19 58 -35 65 -35 7 0 38 16 68 36 l56
35 -3 62 -3 62 -37 3 -38 3 0 -63 c0 -53 -3 -65 -20 -76 -15 -9 -26 -10 -40
-2 -17 9 -20 21 -20 75 l0 65 -40 0 -40 0 0 -65z"/>
<path d="M4910 257 c-35 -12 -35 -12 -38 -81 -4 -85 9 -102 82 -111 63 -8 132
8 146 35 10 18 7 20 -30 20 -29 0 -40 -4 -40 -15 0 -11 -11 -15 -40 -15 -39 0
-40 1 -40 35 l0 35 80 0 c79 0 80 0 80 26 0 40 -17 62 -58 74 -48 13 -98 12
-142 -3z m120 -47 c0 -28 -2 -30 -40 -30 -38 0 -40 2 -40 30 0 28 2 30 40 30
38 0 40 -2 40 -30z"/>
<path d="M5330 253 c-34 -18 -35 -20 -38 -85 -3 -63 -1 -68 25 -85 39 -26 163
-25 192 1 30 27 30 135 1 161 -29 26 -135 31 -180 8z m120 -88 l0 -75 -40 0
-40 0 0 75 0 75 40 0 40 0 0 -75z"/>
<path d="M5630 257 l-35 -12 -3 -123 -3 -122 36 0 c32 0 35 3 35 29 0 27 2 28
62 35 84 8 98 23 98 100 0 34 -4 67 -8 74 -19 30 -119 40 -182 19z m110 -92
l0 -75 -40 0 -40 0 0 75 0 75 40 0 40 0 0 -75z"/>
<path d="M5860 255 c0 -8 7 -15 15 -15 11 0 15 -19 17 -87 l3 -88 35 0 35 0 3
88 3 87 39 0 40 0 0 -91 0 -90 38 3 37 3 3 88 3 87 34 0 34 0 3 -87 3 -88 38
-3 38 -3 -3 93 -3 93 -35 12 c-21 7 -102 12 -207 12 -147 1 -173 -1 -173 -14z"/>
<path d="M6385 263 c-43 -11 -55 -33 -55 -99 0 -58 2 -65 27 -81 39 -26 164
-25 192 1 30 28 26 36 -19 36 -29 0 -40 -4 -40 -15 0 -11 -11 -15 -40 -15 -39
0 -40 1 -40 35 l0 35 80 0 80 0 0 33 c0 50 -27 69 -102 73 -35 1 -72 0 -83 -3z
m105 -53 c0 -28 -2 -30 -40 -30 -38 0 -40 2 -40 30 0 28 2 30 40 30 38 0 40
-2 40 -30z"/>
<path d="M6600 256 c0 -7 9 -16 20 -19 18 -5 20 -14 20 -91 l0 -86 35 0 35 0
0 90 0 90 40 0 39 0 3 -87 3 -88 35 0 35 0 0 90 0 90 -35 12 c-52 18 -230 17
-230 -1z"/>
</g>
</svg>
