<?xml version="1.0" standalone="no"?>
<!DOCTYPE svg PUBLIC "-//W3C//DTD SVG 20010904//EN"
 "http://www.w3.org/TR/2001/REC-SVG-20010904/DTD/svg10.dtd">
<svg version="1.0" xmlns="http://www.w3.org/2000/svg"
 width="1000.000000pt" height="296.000000pt" viewBox="0 0 1000.000000 296.000000"
 preserveAspectRatio="xMidYMid meet">

<g transform="translate(0.000000,296.000000) scale(0.100000,-0.100000)"
fill="#000000" stroke="none">
<path d="M2860 1806 l0 -796 150 0 150 0 0 265 0 265 258 0 c290 0 311 -5 369
-75 44 -53 53 -102 53 -289 l0 -166 150 0 150 0 0 203 c0 282 -18 345 -118
408 -25 16 -67 32 -94 35 -53 7 -63 20 -20 30 107 23 185 81 216 163 26 67 39
255 27 377 -22 214 -87 298 -271 349 -58 17 -120 19 -542 22 l-478 4 0 -795z
m903 516 c72 -32 82 -62 82 -242 0 -131 -2 -149 -23 -191 -19 -38 -32 -51 -72
-68 -46 -20 -66 -21 -319 -21 l-271 0 0 276 0 277 278 -5 c256 -4 281 -6 325
-26z"/>
<path d="M4370 1805 l0 -795 550 0 550 0 0 125 0 125 -400 0 -400 0 0 225 0
225 375 0 375 0 0 110 0 110 -375 0 -375 0 0 210 0 210 395 0 395 0 0 125 0
125 -545 0 -545 0 0 -795z"/>
<path d="M5697 2593 c-4 -3 -7 -361 -7 -795 l0 -788 525 0 525 0 0 130 0 130
-372 2 -373 3 -3 663 -2 662 -143 0 c-79 0 -147 -3 -150 -7z"/>
<path d="M6900 1805 l0 -795 150 0 150 0 0 795 0 795 -150 0 -150 0 0 -795z"/>
<path d="M7450 1805 l0 -795 550 0 550 0 0 125 0 125 -400 0 -400 0 0 225 0
225 375 0 375 0 0 110 0 110 -375 0 -375 0 2 208 3 207 393 3 392 2 0 125 0
125 -545 0 -545 0 0 -795z"/>
<path d="M8780 1805 l0 -795 150 0 150 0 0 325 0 325 355 0 355 0 0 125 0 125
-355 0 -355 0 0 220 0 220 375 0 375 0 0 125 0 125 -525 0 -525 0 0 -795z"/>
<path d="M1090 2250 c0 -187 -3 -340 -6 -340 -5 0 -477 270 -559 320 l-30 19
-123 -212 c-68 -117 -138 -237 -157 -269 l-33 -56 296 -172 297 -171 115 11
c172 16 405 42 408 45 1 1 -39 94 -89 206 -105 237 -114 258 -100 244 5 -5 72
-97 149 -202 l140 -193 83 113 c46 61 116 156 156 210 l73 98 0 344 0 345
-310 0 -310 0 0 -340z"/>
<path d="M776 1352 c-11 -2 -119 -61 -240 -131 -122 -70 -249 -143 -283 -162
-35 -19 -63 -37 -63 -40 0 -3 35 -66 78 -140 44 -74 91 -156 107 -184 41 -73
47 -84 84 -148 l33 -57 62 34 c33 19 167 95 296 170 l235 135 37 83 c48 109
82 183 135 297 23 52 43 96 43 97 0 2 -16 4 -35 4 -19 0 -117 9 -217 20 -245
27 -250 27 -272 22z"/>
<path d="M2860 470 l0 -321 58 3 57 3 0 315 0 315 -57 3 -58 3 0 -321z"/>
<path d="M3090 470 l0 -320 60 0 61 0 -3 265 c-2 146 0 265 5 265 4 0 7 -6 7
-14 0 -14 234 -482 252 -504 8 -9 38 -12 107 -10 l96 3 0 315 0 315 -57 3 -58
3 0 -266 0 -267 -132 264 -133 263 -102 3 -103 3 0 -321z"/>
<path d="M3740 735 l0 -55 90 0 90 0 2 -262 3 -263 58 -3 57 -3 0 266 0 265
95 0 95 0 0 55 0 55 -245 0 -245 0 0 -55z"/>
<path d="M4285 778 c-3 -7 -4 -150 -3 -318 l3 -305 218 -3 217 -2 0 50 0 50
-160 0 -160 0 0 95 0 95 150 0 150 0 0 40 0 40 -150 0 -150 0 0 85 0 85 161 0
160 0 -3 48 -3 47 -213 3 c-165 2 -214 0 -217 -10z"/>
<path d="M4815 777 c-3 -7 -4 -149 -3 -317 l3 -305 55 0 55 0 3 108 3 107 100
0 c150 0 168 -15 169 -137 l0 -83 61 0 61 0 -4 104 c-4 116 -15 139 -72 155
l-31 8 35 15 c49 21 60 37 72 110 14 85 -2 165 -41 202 -37 35 -106 46 -304
46 -118 0 -159 -3 -162 -13z m372 -109 c13 -14 17 -35 17 -89 0 -102 -10 -109
-160 -109 l-114 0 0 111 0 111 120 -4 c97 -2 123 -6 137 -20z"/>
<path d="M5430 470 l0 -320 55 0 55 0 0 267 0 268 105 -209 c58 -115 119 -235
136 -267 l32 -59 98 0 99 0 0 320 0 320 -55 0 -55 0 -2 -266 -3 -266 -119 238
c-65 132 -127 251 -138 267 -19 26 -22 27 -114 27 l-94 0 0 -320z"/>
<path d="M6179 483 c-56 -170 -104 -314 -107 -321 -3 -10 10 -12 59 -10 l64 3
20 60 20 60 139 0 140 0 18 -62 19 -63 59 0 c33 0 60 4 60 9 0 9 -182 554
-202 604 -10 27 -12 27 -98 27 l-88 0 -103 -307z m301 -115 c0 -5 -47 -8 -105
-8 -77 0 -105 3 -105 13 0 10 79 263 96 307 5 12 114 -287 114 -312z"/>
<path d="M6680 735 l0 -55 95 0 95 0 0 -265 0 -265 55 0 55 0 0 265 0 265 95
0 95 0 0 55 0 55 -245 0 -245 0 0 -55z"/>
<path d="M7240 470 l0 -320 55 0 55 0 0 320 0 320 -55 0 -55 0 0 -320z"/>
<path d="M7581 780 c-85 -18 -113 -53 -130 -161 -26 -157 -4 -374 42 -417 54
-49 248 -69 372 -37 116 30 139 89 133 338 -6 252 -30 279 -248 283 -69 2
-145 -1 -169 -6z m254 -104 c44 -19 47 -39 43 -229 -4 -193 -3 -192 -158 -192
-101 0 -111 2 -132 23 -22 22 -23 30 -23 180 0 182 5 207 42 220 43 16 188 14
228 -2z"/>
<path d="M8090 470 l0 -321 58 3 57 3 -2 263 c0 144 1 262 3 262 3 0 17 -26
31 -57 25 -59 131 -270 200 -400 l38 -73 97 0 98 0 0 320 0 320 -55 0 -55 0 0
-267 0 -268 -134 265 -133 265 -102 3 -101 3 0 -321z"/>
<path d="M8842 483 c-56 -170 -102 -314 -102 -321 0 -9 16 -12 58 -10 l57 3
21 60 21 60 138 0 138 0 21 -60 21 -60 58 -3 c44 -2 57 0 57 11 0 8 -47 151
-103 318 l-104 304 -89 3 -89 3 -103 -308z m248 51 c28 -81 50 -154 50 -161 0
-10 -26 -13 -105 -13 -67 0 -105 4 -105 11 0 17 102 320 106 316 3 -2 27 -71
54 -153z"/>
<path d="M9400 470 l0 -320 205 0 205 0 0 55 0 55 -150 0 -150 0 0 265 0 265
-55 0 -55 0 0 -320z"/>
</g>
</svg>
